<svg width="106" viewBox="0 0 106 32" class="logo__Logo-s1e63gnd-0 ccYHen" xmlns="http://www.w3.org/2000/svg" preserveAspectRatio="xMinYMid"><g fill="none" fill-rule="evenodd"><path fill="#f36" d="M0 2v28c0 1.1045695.8954305 2 2 2h28c1.1045695 0 2-.8954305 2-2V2c0-1.1045695-.8954305-2-2-2H2C.8954305 0 0 .8954305 0 2z"></path><path id="vision" fill="#f36" d="M61.6800904 23.5410284h2.8934483V11.394353h-2.8934483v12.1466754zm26.8249947-12.4001833c-1.9607576 0-3.1319452.9893529-3.9451014 2.139448V11.394353h-2.8926469v12.1466754h2.8926469V16.684857c0-1.8862707 1.1716456-3.0133398 2.8454742-3.0133398 1.7216882 0 2.7015517 1.0809066 2.7015517 2.9672875v6.9022237H93v-7.7300631c0-2.8295713-1.6497842-4.6701202-4.4949149-4.6701202zM73.2041922 21.4015803c-2.247801 0-3.8496111-1.7716908-3.8496111-3.9342752 0-2.1391176 1.4822755-3.8881128 3.8016369-3.8881128 2.2710438 0 3.8731974 1.7713603 3.8731974 3.9342752 0 2.1394481-1.4826189 3.8881128-3.8252232 3.8881128zm0-10.2607352c-3.8731974 0-6.7426014 2.875293-6.7426014 6.3726224 0 3.4734219 2.8450162 6.3034339 6.6946272 6.3034339 3.8975852 0 6.7666457-2.8757337 6.7666457-6.3495963 0-3.4965582-2.8458176-6.32646-6.7186715-6.32646zm-35.8136796 9.1790574l-3.3949443-8.9255495h-3.1082444l5.188422 12.2382291h2.605947L43.845956 11.394353h-3.0363403l-3.4191031 8.9255495zm18.4567678-3.9565302c-1.4826189-.4608533-2.8458176-.8286105-2.8458176-1.7025022v-.0461625c0-.7131493.6456473-1.2193939 1.7693188-1.2193939.5480962 0 1.16157.1209699 1.7956532.3350359l-.000458-.0015425s.0062973.0029747.018205.008263c.0545004.0186192.1099169.0394419.1652188.0594934.4575292.1392586 1.6919191.3253406 2.7320079-1.228979-1.3391544-.8516367-3.0600412-1.3809075-4.6390664-1.3809075-2.5099986 0-4.4944569 1.4031624-4.4944569 3.7042342v.0461624c0 2.3233267 2.0799486 3.0595022 3.9447578 3.5657468 1.4827335.4369459 2.8218879.7588712 2.8218879 1.7020616v.0458319c0 .8054743-.7175514 1.3116087-1.9607575 1.3116087-.8266668 0-1.7318784-.2098794-2.6338841-.6189515-.2595643-.1053253-1.6099394-.5497629-2.764525 1.0302271 1.5731859 1.1821555 3.5440191 1.7974713 5.3268486 1.7974713 2.6291898 0 4.6858956-1.2647852 4.6858956-3.8192547v-.045832c0-2.1851698-2.0799487-2.9906441-3.9208281-3.5426105zm-10.5678246 7.1776561h2.8929904V11.394353h-2.8929904v12.1466754z"></path><path fill="#FFF" d="M7.08909294 19.671036c-.10713336.4745665-.16098286.9870324-.16098286 1.4051028 0 1.6472118.85865065 2.7407626 2.68308528 2.7407626 1.51321624 0 2.73987614-.9350089 3.62307584-2.4445116l-.5392869 2.2519544h3.0047116l1.7173012-7.1660478c.4292122-1.8144634 1.2609381-2.7561813 2.5221025-2.7561813.9927087 0 1.6098285.642289 1.6098285 1.7026485 0 .3073147-.0269247.6419358-.1341712 1.0049227l-.8855754 3.2938349c-.1341713.4745665-.1875682.9494861-.1875682 1.3956868 0 1.5637625.8851228 2.7075712 2.7364822 2.7075712 1.5830169 0 2.843955-1.0602417 3.5416228-3.6005612l-1.1803901-.4742134c-.5904213 1.7019423-1.1001815 2.0096101-1.502582 2.0096101-.4025137 0-.617233-.278949-.617233-.8369648 0-.2511718.0538495-.5300032.1341713-.8656836l.8587637-3.2090909c.214493-.7535156.2951541-1.4216985.2951541-2.0356218 0-2.4006096-1.3953355-3.6534085-3.0855989-3.6534085-1.5829038 0-3.1928455 1.4854919-3.9975335 3.0489012l.5900819-2.8062038h-4.5878416l-.6440446 2.4717003h2.1465135l-1.3216885 5.5057714c-1.0380735 2.4006095-2.9447531 2.4395682-3.1840214 2.3837784-.3928977-.0921591-.6440445-.2474054-.6440445-.7785856 0-.3064908.05351011-.7466889.1876813-1.277516l2.0124554-8.3051485H6.98195958l-.64393141 2.4717003h2.11936246L7.08909294 19.671036"></path><circle fill="#FFF" cx="10" cy="8" r="2"></circle></g></svg>